<?xml version="1.0" encoding="UTF-8"?>
<svg id="Layer_2" data-name="Layer 2" xmlns="http://www.w3.org/2000/svg" width="108.96" height="99.53" xmlns:xlink="http://www.w3.org/1999/xlink" viewBox="0 0 108.96 99.53">
  <defs>
    <style>
      .cls-1 {
        fill: url(#linear-gradient);
      }

      .cls-1, .cls-2 {
        stroke-width: 0px;
      }

      .cls-2 {
        fill: url(#linear-gradient-2);
      }
    </style>
    <linearGradient id="linear-gradient" x1="0" y1="41.95" x2="67.93" y2="41.95" gradientUnits="userSpaceOnUse">
      <stop offset="0" stop-color="#3cc096"/>
      <stop offset="1" stop-color="#0a9e70"/>
    </linearGradient>
    <linearGradient id="linear-gradient-2" x1="39.22" y1="64.65" x2="108.96" y2="64.65" xlink:href="#linear-gradient"/>
  </defs>
  <g id="Layer_1-2" data-name="Layer 1">
    <g>
      <path class="cls-1" d="m67.18,5.74c-.33-.85-.8-1.6-1.41-2.3-.37-.47-.8-.9-1.27-1.27-.71-.61-1.46-1.08-2.31-1.41-1.13-.47-2.35-.75-3.67-.75H9.42c-1.27,0-2.54.28-3.67.75-.85.38-1.6.85-2.31,1.41C1.32,3.91,0,6.5,0,9.42v65.06c0,2.92,1.32,5.51,3.44,7.25.71.57,1.46,1.04,2.31,1.41,1.13.47,2.4.75,3.67.75h49.1c2.02,0,3.9-.65,5.44-1.74,1.08-.76,1.99-1.75,2.66-2.89,0-2.31,0-4.74-.01-7.31-.25-.08-.49-.11-.69-.11-.35,0-1.22.09-1.85.95-2.14,2.93-4.81,3.37-6.2,3.37-.75,0-1.51-.12-2.25-.35-1.55-.49-3.04-1.56-4.07-2.94-.7-.92-1.65-1.03-2.03-1.03-.29,0-.76.05-1.23.33.18.46.28.96.28,1.5,0,2.08-1.51,3.77-3.37,3.77H12.69c-1.86,0-3.37-1.69-3.37-3.77s1.51-3.77,3.37-3.77h21.09v-3.7l.05-.36c.01-.09.03-.18.03-.27H13.09c-2.08,0-3.77-1.69-3.77-3.77s1.69-3.77,3.77-3.77h22.16c1.74-6.33,4.93-11.97,9.5-16.82,6.12-6.49,13.66-10.57,22.41-12.14.2-.53.46-1.02.77-1.48V9.42c0-1.32-.28-2.54-.75-3.67Zm-33.21,47.97H13.09c-2.08,0-3.77-1.69-3.77-3.77s1.69-3.77,3.77-3.77h20.88c2.08,0,3.77,1.69,3.77,3.77s-1.69,3.77-3.77,3.77Zm11.65-30.22h-7.91v7.95c0,2.07-1.7,3.72-3.77,3.72s-3.72-1.65-3.72-3.72v-7.95h-7.95c-2.07,0-3.72-1.65-3.72-3.72s1.65-3.77,3.72-3.77h7.95v-7.91c0-2.07,1.65-3.77,3.72-3.77s3.77,1.7,3.77,3.77v7.91h7.91c2.07,0,3.77,1.7,3.77,3.77s-1.69,3.72-3.77,3.72Z"/>
      <path class="cls-2" d="m74.64,29.77c.72.38,1.38.85,1.46,1.73.07.79.02,1.58.02,2.4,1.26.17,2.47.28,3.67.49,8.96,1.56,16.23,5.95,21.84,13.08,4.12,5.23,6.46,11.2,7.17,17.81.11,1.06.14,2.13.17,3.2.03,1.16-.48,1.9-1.44,2.21-.91.29-1.73-.02-2.4-.96-3.06-4.35-9.16-4.24-12.32-.7-.18.2-.35.42-.51.64-1.08,1.45-2.64,1.45-3.72,0-2.93-3.96-8.55-4.36-11.89-.85-.4.42-.57.85-.57,1.45.02,7.02.02,14.03,0,21.05,0,4.71-3.79,8.35-8.48,8.23-4.11-.11-7.67-3.59-7.85-7.7-.04-.84-.03-1.68,0-2.52.03-1.16.92-2.04,2.04-2.04,1.12,0,2,.88,2.04,2.04.02.7,0,1.41,0,2.11.05,2.23,1.85,4.01,4.07,4.02,2.21,0,4.08-1.76,4.09-3.99.03-7.2.02-14.4,0-21.6,0-.31-.22-.68-.45-.93-3.26-3.62-9.02-3.31-11.92.65-.63.86-1.39,1.37-2.43,1.04-.51-.16-1.03-.58-1.36-1.02-3.04-4.05-9.01-4.3-12.34-.48-.19.22-.36.46-.54.7-1.07,1.41-2.83,1.26-3.63-.32-.04-.08-.1-.14-.15-.21,0-.91,0-1.82,0-2.73.15-1.17.27-2.34.47-3.5,1.19-6.94,4.19-13,9.02-18.11,5.37-5.69,11.92-9.22,19.64-10.56,1.22-.21,2.45-.33,3.7-.5.06-1.55-.44-3.3,1.5-4.13h1.09Z"/>
    </g>
  </g>
</svg>