<?xml version="1.0" encoding="UTF-8"?>
<svg id="Layer_2" data-name="Layer 2" xmlns="http://www.w3.org/2000/svg" width="112.74" height="99.53" xmlns:xlink="http://www.w3.org/1999/xlink" viewBox="0 0 112.74 99.53">
  <defs>
    <style>
      .cls-1 {
        fill: url(#linear-gradient);
      }

      .cls-1, .cls-2, .cls-3, .cls-4 {
        stroke-width: 0px;
      }

      .cls-2 {
        fill: url(#linear-gradient-2);
      }

      .cls-3 {
        fill: url(#linear-gradient-3);
      }

      .cls-4 {
        fill: url(#linear-gradient-4);
      }
    </style>
    <linearGradient id="linear-gradient" x1="0" y1="49.76" x2="96.55" y2="49.76" gradientUnits="userSpaceOnUse">
      <stop offset="0" stop-color="#1a237e"/>
      <stop offset="1" stop-color="#3f51b5"/>
    </linearGradient>
    <linearGradient id="linear-gradient-2" x1="31" y1="77.88" x2="112.74" y2="77.88" xlink:href="#linear-gradient"/>
    <linearGradient id="linear-gradient-3" x1="36.33" y1="44.57" x2="51.68" y2="44.57" xlink:href="#linear-gradient"/>
    <linearGradient id="linear-gradient-4" x1="55.72" y1="44.51" x2="111.74" y2="44.51" xlink:href="#linear-gradient"/>
  </defs>
  <g id="Layer_1-2" data-name="Layer 1">
    <g>
      <path class="cls-1" d="m96.55,32.81h-16.19c-5.98-10.75-17.46-18.04-30.6-18.04-19.3,0-35,15.7-35,35s15.16,34.46,34,34.98v14.77C21.79,98.99,0,76.88,0,49.77S22.33,0,49.77,0c21.49,0,39.84,13.69,46.79,32.81Z"/>
      <path class="cls-2" d="m109.68,56.22H34.06c-1.68,0-3.06,1.38-3.06,3.06v1.06c0,1.68,1.38,3.06,3.06,3.06h18.8v36.13h56.74c1.74,0,3.14-1.41,3.14-3.14v-37.11c0-1.68-1.38-3.06-3.06-3.06Z"/>
      <circle class="cls-3" cx="44" cy="44.57" r="7.68"/>
      <path class="cls-4" d="m55.72,36.89h53.72c1.26,0,2.29,1.03,2.29,2.29v12.95h-56.01v-15.24h0Z"/>
    </g>
  </g>
</svg>